<?xml version="1.0" encoding="UTF-8"?>
<svg xmlns="http://www.w3.org/2000/svg" xmlns:xlink="http://www.w3.org/1999/xlink" width="512" height="512" viewBox="0 0 60 59" version="1.1"><!-- Generator: Sketch 51.3 (57544) - http://www.bohemiancoding.com/sketch --><title>038 - Monster Truck</title><desc>Created with Sketch.</desc><defs/><g id="Page-1" stroke="none" stroke-width="1" fill="none" fill-rule="evenodd"><g id="038---Monster-Truck" transform="translate(-1.000000, 0.000000)" fill-rule="nonzero"><path d="M21,12 L12.44,12 C11.8877153,12 11.44,11.5522847 11.44,11 C11.44,10.4477153 11.8877153,10 12.44,10 L21,10 C21.5522847,10 22,10.4477153 22,11 C22,11.5522847 21.5522847,12 21,12 Z" id="Shape" fill="#7F8C8D"/><path d="M49.56,12 L41,12 C40.4477153,12 40,11.5522847 40,11 C40,10.4477153 40.4477153,10 41,10 L49.56,10 C50.1122847,10 50.56,10.4477153 50.56,11 C50.56,11.5522847 50.1122847,12 49.56,12 Z" id="Shape" fill="#7F8C8D"/><rect id="Rectangle-path" fill="#BDC3C7" x="11" y="6" width="4" height="6" rx="1"/><rect id="Rectangle-path" fill="#BDC3C7" x="47" y="6" width="4" height="6" rx="1"/><path d="M44,15 L35.167,17 L26.417,17 L18,15 L18.7,8.67 C18.8724533,7.14903133 20.1592858,5.99992003 21.69,6 L40.31,6 C41.8407142,5.99992003 43.1275467,7.14903133 43.3,8.67 L44,15 Z" id="Shape" fill="#B0D3F0"/><path d="M28.0000087,6 C28.0007253,6.17195101 27.9558695,6.34102312 27.87,6.49 L23.14,15 L20.9999913,15 C20.9992747,14.828049 21.0441305,14.6589769 21.13,14.51 L25.86,6 L28.0000087,6 Z" id="Shape" fill="#FFFFFF"/><path d="M33.0000087,6 C33.0007253,6.17195101 32.9558695,6.34102312 32.87,6.49 L28.14,15 L25.9999913,15 C25.9992747,14.828049 26.0441305,14.6589769 26.13,14.51 L30.86,6 L33.0000087,6 Z" id="Shape" fill="#FFFFFF"/><path d="M44,16 C43.4906409,15.9995255 43.0630293,15.6162684 43.007,15.11 L42.307,8.78 C42.1921844,7.76326075 41.330194,6.99608936 40.307,7 L21.69,7 C20.6664644,6.99614555 19.8043437,7.76386402 19.69,8.781 L18.99,15.11 C18.9647146,15.3745219 18.8336256,15.6176063 18.626495,15.784064 C18.4193645,15.9505216 18.1537659,16.0262298 17.89,15.994 C17.3427459,15.9332368 16.9475753,15.4415087 17.006,14.894 L17.706,8.564 C17.9287261,6.53278036 19.6466096,4.99599895 21.69,5 L40.31,5 C42.3516782,4.9957209 44.068909,6.52976311 44.294,8.559 L44.994,14.89 C45.0524247,15.4375087 44.6572541,15.9292368 44.11,15.99 C44.073532,15.9952427 44.0368155,15.9985806 44,16 Z" id="Shape" fill="#F29C1F"/><path d="M16,15 L46,15 C47.1045695,15 48,15.8954305 48,17 L48,25 L14,25 L14,17 C14,15.8954305 14.8954305,15 16,15 Z" id="Shape" fill="#E57E25"/><path d="M27,19 C28.1045695,19 29,19.8954305 29,21 L29,24 L25,24 L25,21 C25,19.8954305 25.8954305,19 27,19 Z" id="Shape" fill="#5E5F62"/><path d="M31,19 C32.1045695,19 33,19.8954305 33,21 L33,24 L29,24 L29,21 C29,19.8954305 29.8954305,19 31,19 Z" id="Shape" fill="#7F8C8D"/><path d="M35,19 C36.1045695,19 37,19.8954305 37,21 L37,24 L33,24 L33,21 C33,19.8954305 33.8954305,19 35,19 Z" id="Shape" fill="#5E5F62"/><path d="M20,19 L23,19 C24.1045695,19 25,19.8954305 25,21 L25,24 L18,24 L18,21 C18,19.8954305 18.8954305,19 20,19 Z" id="Shape" fill="#B0D3F0"/><path d="M39,19 L42,19 C43.1045695,19 44,19.8954305 44,21 L44,24 L37,24 L37,21 C37,19.8954305 37.8954305,19 39,19 Z" id="Shape" fill="#B0D3F0"/><polyline id="Shape" fill="#2C2F38" points="29 25.708 29 44.583 33 44.583 33 25.708"/><polygon id="Shape" fill="#95A5A5" points="24.29 28 26.76 42.02 26.833 45.292 22.88 43 20.23 28 22.125 25.5"/><polygon id="Shape" fill="#95A5A5" points="37.71 28 35.24 42.02 36 44.417 39.12 43 41.77 28 39.833 25.833"/><rect id="Rectangle-path" fill="#F29C1F" x="12" y="24" width="38" height="4" rx="1"/><polygon id="Shape" fill="#2C2F38" points="24.564 43 16.583 43 16.583 47 24.564 47 37.144 47 45.125 47 45.125 43 37.144 43"/><rect id="Rectangle-path" fill="#35495E" x="2" y="32" width="16" height="27" rx="4"/><path d="M5,39 C4.87285009,39.000121 4.74687453,38.9756729 4.629,38.928 L1.629,37.728 C1.2852177,37.6040519 1.0364256,37.302445 0.980114264,36.9413654 C0.92380293,36.5802859 1.06894129,36.2172444 1.35865608,35.9945007 C1.64837086,35.7717571 2.03651805,35.7247885 2.371,35.872 L5.371,37.072 C5.81535531,37.2504013 6.07088771,37.7187578 5.98040755,38.188962 C5.88992738,38.6591662 5.47882992,38.9992448 5,39 Z" id="Shape" fill="#2C3E50"/><path d="M5,43 C4.87285009,43.000121 4.74687453,42.9756729 4.629,42.928 L1.629,41.728 C1.2852177,41.6040519 1.0364256,41.302445 0.980114264,40.9413654 C0.92380293,40.5802859 1.06894129,40.2172444 1.35865608,39.9945007 C1.64837086,39.7717571 2.03651805,39.7247885 2.371,39.872 L5.371,41.072 C5.81535531,41.2504013 6.07088771,41.7187578 5.98040755,42.188962 C5.88992738,42.6591662 5.47882992,42.9992448 5,43 Z" id="Shape" fill="#2C3E50"/><path d="M5,47 C4.87285009,47.000121 4.74687453,46.9756729 4.629,46.928 L1.629,45.728 C1.2852177,45.6040519 1.0364256,45.302445 0.980114264,44.9413654 C0.92380293,44.5802859 1.06894129,44.2172444 1.35865608,43.9945007 C1.64837086,43.7717571 2.03651805,43.7247885 2.371,43.872 L5.371,45.072 C5.81535531,45.2504013 6.07088771,45.7187578 5.98040755,46.188962 C5.88992738,46.6591662 5.47882992,46.9992448 5,47 Z" id="Shape" fill="#2C3E50"/><path d="M5,51 C4.87285009,51.000121 4.74687453,50.9756729 4.629,50.928 L1.629,49.728 C1.2852177,49.6040519 1.0364256,49.302445 0.980114264,48.9413654 C0.92380293,48.5802859 1.06894129,48.2172444 1.35865608,47.9945007 C1.64837086,47.7717571 2.03651805,47.7247885 2.371,47.872 L5.371,49.072 C5.81535531,49.2504013 6.07088771,49.7187578 5.98040755,50.188962 C5.88992738,50.6591662 5.47882992,50.9992448 5,51 Z" id="Shape" fill="#2C3E50"/><path d="M5,55 C4.87285009,55.000121 4.74687453,54.9756729 4.629,54.928 L1.629,53.728 C1.2852177,53.6040519 1.0364256,53.302445 0.980114264,52.9413654 C0.92380293,52.5802859 1.06894129,52.2172444 1.35865608,51.9945007 C1.64837086,51.7717571 2.03651805,51.7247885 2.371,51.872 L5.371,53.072 C5.81535531,53.2504013 6.07088771,53.7187578 5.98040755,54.188962 C5.88992738,54.6591662 5.47882992,54.9992448 5,55 Z" id="Shape" fill="#2C3E50"/><path d="M15,39 C14.5211701,38.9992448 14.1100726,38.6591662 14.0195925,38.188962 C13.9291123,37.7187578 14.1846447,37.2504013 14.629,37.072 L17.629,35.872 C17.963482,35.7247885 18.3516291,35.7717571 18.6413439,35.9945007 C18.9310587,36.2172444 19.0761971,36.5802859 19.0198857,36.9413654 C18.9635744,37.302445 18.7147823,37.6040519 18.371,37.728 L15.371,38.928 C15.2531255,38.9756729 15.1271499,39.000121 15,39 Z" id="Shape" fill="#2C3E50"/><path d="M15,43 C14.5211701,42.9992448 14.1100726,42.6591662 14.0195925,42.188962 C13.9291123,41.7187578 14.1846447,41.2504013 14.629,41.072 L17.629,39.872 C17.963482,39.7247885 18.3516291,39.7717571 18.6413439,39.9945007 C18.9310587,40.2172444 19.0761971,40.5802859 19.0198857,40.9413654 C18.9635744,41.302445 18.7147823,41.6040519 18.371,41.728 L15.371,42.928 C15.2531255,42.9756729 15.1271499,43.000121 15,43 Z" id="Shape" fill="#2C3E50"/><path d="M15,47 C14.5211701,46.9992448 14.1100726,46.6591662 14.0195925,46.188962 C13.9291123,45.7187578 14.1846447,45.2504013 14.629,45.072 L17.629,43.872 C17.963482,43.7247885 18.3516291,43.7717571 18.6413439,43.9945007 C18.9310587,44.2172444 19.0761971,44.5802859 19.0198857,44.9413654 C18.9635744,45.302445 18.7147823,45.6040519 18.371,45.728 L15.371,46.928 C15.2531255,46.9756729 15.1271499,47.000121 15,47 Z" id="Shape" fill="#2C3E50"/><path d="M15,51 C14.5211701,50.9992448 14.1100726,50.6591662 14.0195925,50.188962 C13.9291123,49.7187578 14.1846447,49.2504013 14.629,49.072 L17.629,47.872 C17.963482,47.7247885 18.3516291,47.7717571 18.6413439,47.9945007 C18.9310587,48.2172444 19.0761971,48.5802859 19.0198857,48.9413654 C18.9635744,49.302445 18.7147823,49.6040519 18.371,49.728 L15.371,50.928 C15.2531255,50.9756729 15.1271499,51.000121 15,51 Z" id="Shape" fill="#2C3E50"/><path d="M15,55 C14.5211701,54.9992448 14.1100726,54.6591662 14.0195925,54.188962 C13.9291123,53.7187578 14.1846447,53.2504013 14.629,53.072 L17.629,51.872 C17.963482,51.7247885 18.3516291,51.7717571 18.6413439,51.9945007 C18.9310587,52.2172444 19.0761971,52.5802859 19.0198857,52.9413654 C18.9635744,53.302445 18.7147823,53.6040519 18.371,53.728 L15.371,54.928 C15.2531255,54.9756729 15.1271499,55.000121 15,55 Z" id="Shape" fill="#2C3E50"/><rect id="Rectangle-path" fill="#2C3E50" x="8" y="32" width="4" height="27"/><rect id="Rectangle-path" fill="#35495E" x="44" y="32" width="16" height="27" rx="4"/><path d="M47,39 C46.8728501,39.000121 46.7468745,38.9756729 46.629,38.928 L43.629,37.728 C43.2852177,37.6040519 43.0364256,37.302445 42.9801143,36.9413654 C42.9238029,36.5802859 43.0689413,36.2172444 43.3586561,35.9945007 C43.6483709,35.7717571 44.036518,35.7247885 44.371,35.872 L47.371,37.072 C47.8153553,37.2504013 48.0708877,37.7187578 47.9804075,38.188962 C47.8899274,38.6591662 47.4788299,38.9992448 47,39 Z" id="Shape" fill="#2C3E50"/><path d="M47,43 C46.8728501,43.000121 46.7468745,42.9756729 46.629,42.928 L43.629,41.728 C43.2852177,41.6040519 43.0364256,41.302445 42.9801143,40.9413654 C42.9238029,40.5802859 43.0689413,40.2172444 43.3586561,39.9945007 C43.6483709,39.7717571 44.036518,39.7247885 44.371,39.872 L47.371,41.072 C47.8153553,41.2504013 48.0708877,41.7187578 47.9804075,42.188962 C47.8899274,42.6591662 47.4788299,42.9992448 47,43 Z" id="Shape" fill="#2C3E50"/><path d="M47,47 C46.8728501,47.000121 46.7468745,46.9756729 46.629,46.928 L43.629,45.728 C43.2852177,45.6040519 43.0364256,45.302445 42.9801143,44.9413654 C42.9238029,44.5802859 43.0689413,44.2172444 43.3586561,43.9945007 C43.6483709,43.7717571 44.036518,43.7247885 44.371,43.872 L47.371,45.072 C47.8153553,45.2504013 48.0708877,45.7187578 47.9804075,46.188962 C47.8899274,46.6591662 47.4788299,46.9992448 47,47 Z" id="Shape" fill="#2C3E50"/><path d="M47,51 C46.8728501,51.000121 46.7468745,50.9756729 46.629,50.928 L43.629,49.728 C43.2852177,49.6040519 43.0364256,49.302445 42.9801143,48.9413654 C42.9238029,48.5802859 43.0689413,48.2172444 43.3586561,47.9945007 C43.6483709,47.7717571 44.036518,47.7247885 44.371,47.872 L47.371,49.072 C47.8153553,49.2504013 48.0708877,49.7187578 47.9804075,50.188962 C47.8899274,50.6591662 47.4788299,50.9992448 47,51 Z" id="Shape" fill="#2C3E50"/><path d="M47,55 C46.8728501,55.000121 46.7468745,54.9756729 46.629,54.928 L43.629,53.728 C43.2852177,53.6040519 43.0364256,53.302445 42.9801143,52.9413654 C42.9238029,52.5802859 43.0689413,52.2172444 43.3586561,51.9945007 C43.6483709,51.7717571 44.036518,51.7247885 44.371,51.872 L47.371,53.072 C47.8153553,53.2504013 48.0708877,53.7187578 47.9804075,54.188962 C47.8899274,54.6591662 47.4788299,54.9992448 47,55 Z" id="Shape" fill="#2C3E50"/><path d="M57,39 C56.5211701,38.9992448 56.1100726,38.6591662 56.0195925,38.188962 C55.9291123,37.7187578 56.1846447,37.2504013 56.629,37.072 L59.629,35.872 C59.963482,35.7247885 60.3516291,35.7717571 60.6413439,35.9945007 C60.9310587,36.2172444 61.0761971,36.5802859 61.0198857,36.9413654 C60.9635744,37.302445 60.7147823,37.6040519 60.371,37.728 L57.371,38.928 C57.2531255,38.9756729 57.1271499,39.000121 57,39 Z" id="Shape" fill="#2C3E50"/><path d="M57,43 C56.5211701,42.9992448 56.1100726,42.6591662 56.0195925,42.188962 C55.9291123,41.7187578 56.1846447,41.2504013 56.629,41.072 L59.629,39.872 C59.963482,39.7247885 60.3516291,39.7717571 60.6413439,39.9945007 C60.9310587,40.2172444 61.0761971,40.5802859 61.0198857,40.9413654 C60.9635744,41.302445 60.7147823,41.6040519 60.371,41.728 L57.371,42.928 C57.2531255,42.9756729 57.1271499,43.000121 57,43 Z" id="Shape" fill="#2C3E50"/><path d="M57,47 C56.5211701,46.9992448 56.1100726,46.6591662 56.0195925,46.188962 C55.9291123,45.7187578 56.1846447,45.2504013 56.629,45.072 L59.629,43.872 C59.963482,43.7247885 60.3516291,43.7717571 60.6413439,43.9945007 C60.9310587,44.2172444 61.0761971,44.5802859 61.0198857,44.9413654 C60.9635744,45.302445 60.7147823,45.6040519 60.371,45.728 L57.371,46.928 C57.2531255,46.9756729 57.1271499,47.000121 57,47 Z" id="Shape" fill="#2C3E50"/><path d="M57,51 C56.5211701,50.9992448 56.1100726,50.6591662 56.0195925,50.188962 C55.9291123,49.7187578 56.1846447,49.2504013 56.629,49.072 L59.629,47.872 C59.963482,47.7247885 60.3516291,47.7717571 60.6413439,47.9945007 C60.9310587,48.2172444 61.0761971,48.5802859 61.0198857,48.9413654 C60.9635744,49.302445 60.7147823,49.6040519 60.371,49.728 L57.371,50.928 C57.2531255,50.9756729 57.1271499,51.000121 57,51 Z" id="Shape" fill="#2C3E50"/><path d="M57,55 C56.5211701,54.9992448 56.1100726,54.6591662 56.0195925,54.188962 C55.9291123,53.7187578 56.1846447,53.2504013 56.629,53.072 L59.629,51.872 C59.963482,51.7247885 60.3516291,51.7717571 60.6413439,51.9945007 C60.9310587,52.2172444 61.0761971,52.5802859 61.0198857,52.9413654 C60.9635744,53.302445 60.7147823,53.6040519 60.371,53.728 L57.371,54.928 C57.2531255,54.9756729 57.1271499,55.000121 57,55 Z" id="Shape" fill="#2C3E50"/><rect id="Rectangle-path" fill="#2C3E50" x="50" y="32" width="4" height="27"/><rect id="Rectangle-path" fill="#D25627" x="25" y="42" width="12" height="6" rx="2"/><circle id="Oval" fill="#A5A5A4" cx="24" cy="3" r="2"/><path d="M24,6 C22.3431458,6 21,4.65685425 21,3 C21,1.34314575 22.3431458,3.04359188e-16 24,0 C25.6568542,-3.04359188e-16 27,1.34314575 27,3 C27,3.79564947 26.6839295,4.55871121 26.1213203,5.12132034 C25.5587112,5.68392948 24.7956495,6 24,6 Z M24,2 C23.4477153,2 23,2.44771525 23,3 C23,3.55228475 23.4477153,4 24,4 C24.5522847,4 25,3.55228475 25,3 C25,2.73478351 24.8946432,2.4804296 24.7071068,2.29289322 C24.5195704,2.10535684 24.2652165,2 24,2 Z" id="Shape" fill="#A5A5A4"/><circle id="Oval" fill="#A5A5A4" cx="31" cy="3" r="2"/><path d="M31,6 C29.3431458,6 28,4.65685425 28,3 C28,1.34314575 29.3431458,3.04359188e-16 31,0 C32.6568542,-3.04359188e-16 34,1.34314575 34,3 C34,3.79564947 33.6839295,4.55871121 33.1213203,5.12132034 C32.5587112,5.68392948 31.7956495,6 31,6 Z M31,2 C30.4477153,2 30,2.44771525 30,3 C30,3.55228475 30.4477153,4 31,4 C31.5522847,4 32,3.55228475 32,3 C32,2.73478351 31.8946432,2.4804296 31.7071068,2.29289322 C31.5195704,2.10535684 31.2652165,2 31,2 Z" id="Shape" fill="#A5A5A4"/><circle id="Oval" fill="#A5A5A4" cx="38" cy="3" r="2"/><path d="M38,6 C36.3431458,6 35,4.65685425 35,3 C35,1.34314575 36.3431458,3.04359188e-16 38,0 C39.6568542,-3.04359188e-16 41,1.34314575 41,3 C41,3.79564947 40.6839295,4.55871121 40.1213203,5.12132034 C39.5587112,5.68392948 38.7956495,6 38,6 Z M38,2 C37.4477153,2 37,2.44771525 37,3 C37,3.55228475 37.4477153,4 38,4 C38.5522847,4 39,3.55228475 39,3 C39,2.73478351 38.8946432,2.4804296 38.7071068,2.29289322 C38.5195704,2.10535684 38.2652165,2 38,2 Z" id="Shape" fill="#A5A5A4"/><circle id="Oval" fill="#F3D55B" cx="24" cy="3" r="2"/><circle id="Oval" fill="#F3D55B" cx="31" cy="3" r="2"/><circle id="Oval" fill="#F3D55B" cx="38" cy="3" r="2"/></g></g></svg>
