<?xml version="1.0"?>
<svg xmlns="http://www.w3.org/2000/svg" xmlns:xlink="http://www.w3.org/1999/xlink" xmlns:svgjs="http://svgjs.com/svgjs" version="1.1" width="512" height="512" x="0" y="0" viewBox="0 0 64 64" style="enable-background:new 0 0 512 512" xml:space="preserve" class=""><g transform="matrix(-1,1.2246467991473532e-16,-1.2246467991473532e-16,-1,64.00000333786011,64.00021600723267)"><g xmlns="http://www.w3.org/2000/svg" id="Filled_outline" data-name="Filled outline"><path d="m35 15h-6v-6c0-3 3-6 3-6s3 3 3 6z" fill="#98b398" data-original="#98b398" style="" class=""/><path d="m37 27h-10v-9l2-3h6l2 3z" fill="#3e8051" data-original="#3e8051" style="" class=""/><path d="m27 28-10 4v-6l10-8z" fill="#98b398" data-original="#98b398" style="" class=""/><path d="m27 27h10v26h-10z" fill="#3e8051" data-original="#3e8051" style="" class=""/><path d="m35 57h-6l-2-4h10z" fill="#394d5c" data-original="#394d5c" style=""/><path d="m27 27h10v4h-10z" fill="#296038" data-original="#296038" style=""/><rect fill="#394d5c" height="14" rx="2" width="4" x="3" y="41" data-original="#394d5c" style=""/><path d="m27 53h-20v-10l20-8z" fill="#98b398" data-original="#98b398" style="" class=""/><path d="m7 49h20v4h-20z" fill="#296038" data-original="#296038" style=""/><path d="m37 28 10 4v-6l-10-8z" fill="#98b398" data-original="#98b398" style="" class=""/><rect fill="#394d5c" height="14" rx="2" transform="matrix(-1 0 0 -1 118 96)" width="4" x="57" y="41" data-original="#394d5c" style=""/><path d="m37 53h20v-10l-20-8z" fill="#98b398" data-original="#98b398" style="" class=""/><path d="m37 49h20v4h-20z" fill="#296038" transform="matrix(-1 0 0 -1 94 102)" data-original="#296038" style=""/><path d="m29 57h6v4h-6z" fill="#7d8d9c" data-original="#7d8d9c" style=""/><path d="m31 35h2v2h-2z" fill="#000000" data-original="#000000" style="" class=""/><path d="m31 40h2v2h-2z" fill="#000000" data-original="#000000" style="" class=""/><path d="m31 45h2v2h-2z" fill="#000000" data-original="#000000" style="" class=""/><path d="m59 40a2.991 2.991 0 0 0 -2.667 1.656l-18.333-7.333v-4.846l8.628 3.452a1 1 0 0 0 1.372-.929v-6a1 1 0 0 0 -.375-.781l-9.879-7.9-1.746-2.619v-5.7c0-3.375-3.158-6.573-3.293-6.707a1 1 0 0 0 -1.414 0c-.135.134-3.293 3.332-3.293 6.707v5.7l-1.746 2.62-9.879 7.9a1 1 0 0 0 -.375.78v6a1 1 0 0 0 1.372.929l8.628-3.452v4.846l-18.333 7.333a2.991 2.991 0 0 0 -5.667 1.344v10a2.993 2.993 0 0 0 5.816 1h18.566l1.618 3.236v3.764a1 1 0 0 0 1 1h6a1 1 0 0 0 1-1v-3.764l1.618-3.236h18.566a2.993 2.993 0 0 0 5.816-1v-10a3 3 0 0 0 -3-3zm-21-13v-6.919l8 6.4v4.043l-8-3.2zm-32 26a1 1 0 0 1 -2 0v-10a1 1 0 0 1 2 0zm20-1h-18v-2h18zm0-4h-18v-4.323l3-1.2v2.523h2v-3.323l3-1.2v2.523h2v-3.323l3-1.2v2.523h2v-3.323l3-1.2zm0-21v.323l-8 3.2v-4.043l8-6.4zm4-18a8.073 8.073 0 0 1 2-4.482 8.073 8.073 0 0 1 2 4.482v5h-4zm4 51h-4v-2h4zm.382-4h-4.764l-1-2h6.764zm1.618-4h-8v-20h8zm0-22h-8v-2h8zm0-4h-8v-7.7l1.535-2.3h4.93l1.535 2.3zm20 26h-18v-2h18zm0-4h-18v-11.523l3 1.2v3.323h2v-2.523l3 1.2v3.323h2v-2.523l3 1.2v3.323h2v-2.523l3 1.2zm4 5a1 1 0 0 1 -2 0v-10a1 1 0 0 1 2 0z" fill="#000000" data-original="#000000" style="" class=""/></g></g></svg>
