<?xml version="1.0"?>
<svg xmlns="http://www.w3.org/2000/svg" viewBox="0 0 64 64" width="512" height="512"><g id="Filled_outline" data-name="Filled outline"><path d="M16,7H48a8,8,0,0,1,8,8V53a0,0,0,0,1,0,0H8a0,0,0,0,1,0,0V15A8,8,0,0,1,16,7Z" style="fill:#dd3e46"/><path d="M19,3H45a2,2,0,0,1,2,2V7a0,0,0,0,1,0,0H17a0,0,0,0,1,0,0V5A2,2,0,0,1,19,3Z" style="fill:#dd3e46"/><rect x="5" y="53" width="54" height="4" rx="2" ry="2" style="fill:#aabece"/><path d="M56,34,37,41a14.463,14.463,0,0,1-10,0L8,34V15a8,8,0,0,1,8-8H48a8,8,0,0,1,8,8Z" style="fill:#cfdfe8"/><circle cx="16" cy="45" r="4" style="fill:#f5f688"/><circle cx="48" cy="45" r="4" style="fill:#f5f688"/><path d="M17,11H30a0,0,0,0,1,0,0V24a0,0,0,0,1,0,0H12a0,0,0,0,1,0,0V16A5,5,0,0,1,17,11Z" style="fill:#f4f4e6"/><path d="M34,11H47a5,5,0,0,1,5,5v8a0,0,0,0,1,0,0H34a0,0,0,0,1,0,0V11A0,0,0,0,1,34,11Z" style="fill:#f4f4e6"/><rect x="14.964" y="20.5" width="7.071" height="2" transform="translate(-9.784 19.379) rotate(-45)" style="fill:#5a6470"/><rect x="19.964" y="20.5" width="7.071" height="2" transform="translate(-8.32 22.914) rotate(-45)" style="fill:#5a6470"/><rect x="36.964" y="20.5" width="7.071" height="2" transform="translate(-3.341 34.935) rotate(-45)" style="fill:#5a6470"/><rect x="41.964" y="20.5" width="7.071" height="2" transform="translate(-1.876 38.471) rotate(-45)" style="fill:#5a6470"/><path d="M32,27a6,6,0,1,0,6,6A6.006,6.006,0,0,0,32,27Zm4,6a3.971,3.971,0,0,1-.247,1.339L33,31.586V29.142A4,4,0,0,1,36,33Zm-5,3.858a3.961,3.961,0,0,1-1.6-.844l1.6-1.6Zm2-2.444,1.6,1.6a3.961,3.961,0,0,1-1.6.844Zm-2-5.272v2.444l-2.753,2.753A3.937,3.937,0,0,1,31,29.142Z" style="fill:#7d8d9c"/><rect x="11" y="27" width="2" height="2" style="fill:#5a6470"/><rect x="49" y="27" width="4" height="2" style="fill:#5a6470"/><rect x="45" y="27" width="2" height="2" style="fill:#5a6470"/><rect x="28" y="46" width="8" height="2" style="fill:#f4f4e6"/><rect x="38" y="46" width="2" height="2" style="fill:#f4f4e6"/><rect x="24" y="46" width="2" height="2" style="fill:#f4f4e6"/><path d="M13,57h6a0,0,0,0,1,0,0v2a2,2,0,0,1-2,2H15a2,2,0,0,1-2-2V57A0,0,0,0,1,13,57Z" style="fill:#5a6470"/><path d="M45,57h6a0,0,0,0,1,0,0v2a2,2,0,0,1-2,2H47a2,2,0,0,1-2-2V57A0,0,0,0,1,45,57Z" style="fill:#5a6470"/><rect x="4" y="17" width="4" height="8" style="fill:#dd3e46"/><rect x="56" y="17" width="4" height="8" style="fill:#dd3e46"/><path d="M16,40a5,5,0,1,0,5,5A5.006,5.006,0,0,0,16,40Zm0,8a3,3,0,1,1,3-3A3,3,0,0,1,16,48Z"/><path d="M48,40a5,5,0,1,0,5,5A5.006,5.006,0,0,0,48,40Zm0,8a3,3,0,1,1,3-3A3,3,0,0,1,48,48Z"/><path d="M12,25H30a1,1,0,0,0,1-1V11a1,1,0,0,0-1-1H17a6.006,6.006,0,0,0-6,6v8A1,1,0,0,0,12,25Zm1-9a4,4,0,0,1,4-4H29V23H23.414l3.293-3.293-1.414-1.414L20.586,23H18.414l3.293-3.293-1.414-1.414L15.586,23H13Z"/><path d="M34,25H52a1,1,0,0,0,1-1V16a6.006,6.006,0,0,0-6-6H34a1,1,0,0,0-1,1V24A1,1,0,0,0,34,25Zm1-13H47a4,4,0,0,1,4,4v7H45.414l3.293-3.293-1.414-1.414L42.586,23H40.414l3.293-3.293-1.414-1.414L37.586,23H35Z"/><path d="M26,33a6,6,0,1,0,6-6A6.006,6.006,0,0,0,26,33Zm7,1.414,1.6,1.6a3.961,3.961,0,0,1-1.6.844Zm-2,2.444a3.961,3.961,0,0,1-1.6-.844l1.6-1.6ZM36,33a3.971,3.971,0,0,1-.247,1.339L33,31.586V29.142A4,4,0,0,1,36,33Zm-5-3.858v2.444l-2.753,2.753A3.937,3.937,0,0,1,31,29.142Z"/><rect x="11" y="27" width="2" height="2"/><rect x="49" y="27" width="4" height="2"/><rect x="45" y="27" width="2" height="2"/><rect x="28" y="46" width="8" height="2"/><rect x="38" y="46" width="2" height="2"/><rect x="24" y="46" width="2" height="2"/><path d="M4,26H7V52a3,3,0,0,0,0,6h5v1a3,3,0,0,0,3,3h2a3,3,0,0,0,3-3V58H44v1a3,3,0,0,0,3,3h2a3,3,0,0,0,3-3V58h5a3,3,0,0,0,0-6V26h3a1,1,0,0,0,1-1V17a1,1,0,0,0-1-1H57V15a9.011,9.011,0,0,0-9-9V5a3,3,0,0,0-3-3H19a3,3,0,0,0-3,3V6a9.011,9.011,0,0,0-9,9v1H4a1,1,0,0,0-1,1v8A1,1,0,0,0,4,26ZM18,59a1,1,0,0,1-1,1H15a1,1,0,0,1-1-1V58h4Zm32,0a1,1,0,0,1-1,1H47a1,1,0,0,1-1-1V58h4Zm8-4a1,1,0,0,1-1,1H7a1,1,0,0,1,0-2H57A1,1,0,0,1,58,55ZM9,52V35.434l17.649,6.5a15.447,15.447,0,0,0,10.7,0L55,35.434V52ZM59,18v6H57V18ZM18,5a1,1,0,0,1,1-1H45a1,1,0,0,1,1,1V6H18ZM9,15a7.008,7.008,0,0,1,7-7H48a7.008,7.008,0,0,1,7,7V33.3l-18.351,6.76a13.428,13.428,0,0,1-9.3,0L9,33.3ZM5,18H7v6H5Z"/></g></svg>
