<?xml version="1.0" encoding="iso-8859-1"?>
<!-- Generator: Adobe Illustrator 19.0.0, SVG Export Plug-In . SVG Version: 6.00 Build 0)  -->
<svg version="1.1" id="Capa_1" xmlns="http://www.w3.org/2000/svg" xmlns:xlink="http://www.w3.org/1999/xlink" x="0px" y="0px"
	 viewBox="0 0 512 512" style="enable-background:new 0 0 512 512;" xml:space="preserve">
<g>
	<path style="fill:#67B9CC;" d="M247.467,38.401h17.067c23.564,0,42.667,19.103,42.667,42.667v136.533H204.8V81.067
		C204.8,57.503,223.903,38.401,247.467,38.401z"/>
	<g>
		<path style="fill:#71C285;" d="M196.267,200.534h119.467c4.713,0,8.533,3.821,8.533,8.533v51.2H187.733v-51.2
			C187.733,204.354,191.554,200.534,196.267,200.534z"/>
		<path style="fill:#71C285;" d="M50.142,8.679c-1.296-2.349-3.62-3.953-6.277-4.328c-2.656-0.376-5.335,0.519-7.231,2.417
			L2.5,40.901c-3.234,3.348-3.188,8.671,0.104,11.962s8.614,3.338,11.962,0.104l26.112-26.112L62.43,66.296L36.634,92.101
			c-2.218,2.143-3.108,5.315-2.327,8.299c0.781,2.984,3.111,5.313,6.094,6.094c2.984,0.781,6.156-0.109,8.299-2.327l22.315-22.315
			l18.773,33.937l-27.554,27.511c-2.218,2.143-3.108,5.315-2.327,8.299s3.111,5.313,6.094,6.094
			c2.984,0.781,6.156-0.109,8.299-2.327l24.021-24.021l15.693,28.442l-26.18,26.18c-2.218,2.143-3.108,5.315-2.327,8.299
			c0.781,2.984,3.111,5.314,6.094,6.094c2.984,0.781,6.156-0.109,8.299-2.327l22.69-22.699l49.135,89.054
			c1.502,2.723,4.366,4.413,7.475,4.412c3.018-0.002,5.811-1.598,7.344-4.197c1.534-2.599,1.58-5.815,0.123-8.458L50.142,8.679z"/>
		<path style="fill:#71C285;" d="M509.5,40.901L475.366,6.767c-1.896-1.898-4.575-2.793-7.231-2.417s-4.981,1.979-6.277,4.328
			L325.325,256.146c-2.276,4.128-0.775,9.321,3.354,11.597c4.128,2.276,9.32,0.775,11.597-3.354l49.135-89.054l22.69,22.699
			c3.348,3.234,8.671,3.188,11.962-0.104c3.292-3.292,3.338-8.614,0.104-11.962l-26.18-26.18l15.693-28.442l24.021,24.021
			c3.348,3.234,8.671,3.188,11.962-0.104c3.292-3.292,3.338-8.614,0.104-11.962l-27.511-27.511l18.773-33.937l22.315,22.315
			c3.348,3.234,8.671,3.188,11.962-0.104c3.292-3.292,3.338-8.614,0.104-11.962L449.57,66.296l21.751-39.441l26.112,26.112
			c3.348,3.234,8.671,3.188,11.962-0.104C512.687,49.571,512.734,44.249,509.5,40.901z"/>
	</g>
	<path style="fill:#4C8056;" d="M179.2,243.201h153.6c9.426,0,17.067,7.641,17.067,17.067v93.867H162.133v-93.867
		C162.133,250.842,169.774,243.201,179.2,243.201z"/>
	<path style="fill:#2C3E50;" d="M324.267,285.867v42.667H187.733v-42.667c0-4.713,3.821-8.533,8.533-8.533h119.467
		C320.446,277.334,324.267,281.154,324.267,285.867z"/>
	<g>
		<path style="fill:#35495E;" d="M230.4,268.801v59.733h-17.067v-59.733c0-4.713,3.821-8.533,8.533-8.533
			C226.579,260.267,230.4,264.088,230.4,268.801z"/>
		<path style="fill:#35495E;" d="M264.533,268.801v59.733h-17.067v-59.733c0-4.713,3.821-8.533,8.533-8.533
			C260.713,260.267,264.533,264.088,264.533,268.801z"/>
		<path style="fill:#35495E;" d="M298.667,268.801v59.733H281.6v-59.733c0-4.713,3.821-8.533,8.533-8.533
			C294.846,260.267,298.667,264.088,298.667,268.801z"/>
	</g>
	<polygon style="fill:#71C285;" points="358.4,396.801 409.6,396.801 409.6,328.534 102.4,328.534 102.4,396.801 153.6,396.801 	"/>
	<path style="fill:#5E5F62;" d="M460.8,285.867v162.133c0.003,1.325-0.169,2.645-0.512,3.925
		c-1.815,7.682-8.661,13.116-16.555,13.141h-42.667c-9.414-0.028-17.039-7.653-17.067-17.067V285.867
		c0.028-9.414,7.653-17.039,17.067-17.067h42.667C453.147,268.829,460.772,276.453,460.8,285.867z"/>
	<path style="fill:#4C8056;" d="M179.2,371.201h153.6c4.713,0,8.533,3.82,8.533,8.533v34.133c0,4.713-3.82,8.533-8.533,8.533H179.2
		c-4.713,0-8.533-3.82-8.533-8.533v-34.133C170.667,375.021,174.487,371.201,179.2,371.201z"/>
	<g>
		<path style="fill:#A5A5A4;" d="M460.8,305.665v18.432c-0.181-0.018-0.356-0.076-0.512-0.171l-22.443-9.045
			c-4.383-1.767-6.503-6.753-4.736-11.136c1.767-4.383,6.753-6.503,11.136-4.736L460.8,305.665z"/>
		<path style="fill:#A5A5A4;" d="M460.8,348.331v18.432c-0.181-0.018-0.356-0.076-0.512-0.171l-22.443-9.045
			c-4.383-1.767-6.503-6.753-4.736-11.136c1.767-4.383,6.753-6.503,11.136-4.736L460.8,348.331z"/>
		<path style="fill:#A5A5A4;" d="M460.8,390.998v18.432c-0.181-0.018-0.356-0.076-0.512-0.171l-22.443-9.045
			c-4.383-1.767-6.503-6.753-4.736-11.136c1.767-4.383,6.753-6.503,11.136-4.736L460.8,390.998z"/>
		<path style="fill:#A5A5A4;" d="M460.8,433.665v14.336c0.003,1.325-0.169,2.645-0.512,3.925l-22.443-9.045
			c-4.383-1.767-6.503-6.753-4.736-11.136c1.767-4.383,6.753-6.503,11.136-4.736L460.8,433.665z"/>
		<path style="fill:#A5A5A4;" d="M384,305.665v18.432c0.181-0.018,0.356-0.076,0.512-0.171l22.443-9.045
			c4.383-1.767,6.503-6.753,4.736-11.136c-1.767-4.383-6.753-6.503-11.136-4.736L384,305.665z"/>
		<path style="fill:#A5A5A4;" d="M384,348.331v18.432c0.181-0.018,0.356-0.076,0.512-0.171l22.443-9.045
			c4.383-1.767,6.503-6.753,4.736-11.136c-1.767-4.383-6.753-6.503-11.136-4.736L384,348.331z"/>
		<path style="fill:#A5A5A4;" d="M384,390.998v18.432c0.181-0.018,0.356-0.076,0.512-0.171l22.443-9.045
			c4.383-1.767,6.503-6.753,4.736-11.136c-1.767-4.383-6.753-6.503-11.136-4.736L384,390.998z"/>
		<path style="fill:#A5A5A4;" d="M384,433.665v14.336c-0.003,1.325,0.169,2.645,0.512,3.925l22.443-9.045
			c4.383-1.767,6.503-6.753,4.736-11.136c-1.767-4.383-6.753-6.503-11.136-4.736L384,433.665z"/>
	</g>
	<path style="fill:#5E5F62;" d="M128,285.867v162.133c0.003,1.325-0.169,2.645-0.512,3.925c-1.815,7.682-8.662,13.116-16.555,13.141
		H68.267c-9.414-0.028-17.039-7.653-17.067-17.067V285.867c0.028-9.414,7.653-17.039,17.067-17.067h42.667
		C120.347,268.829,127.972,276.453,128,285.867z"/>
	<g>
		<path style="fill:#A5A5A4;" d="M128,305.665v18.432c-0.181-0.018-0.356-0.076-0.512-0.171l-22.443-9.045
			c-4.383-1.767-6.503-6.753-4.736-11.136c1.767-4.383,6.753-6.503,11.136-4.736L128,305.665z"/>
		<path style="fill:#A5A5A4;" d="M128,348.331v18.432c-0.181-0.018-0.356-0.076-0.512-0.171l-22.443-9.045
			c-4.383-1.767-6.503-6.753-4.736-11.136c1.767-4.383,6.753-6.503,11.136-4.736L128,348.331z"/>
		<path style="fill:#A5A5A4;" d="M128,390.998v18.432c-0.181-0.018-0.356-0.076-0.512-0.171l-22.443-9.045
			c-4.383-1.767-6.503-6.753-4.736-11.136s6.753-6.503,11.136-4.736L128,390.998z"/>
		<path style="fill:#A5A5A4;" d="M128,433.665v14.336c0.003,1.325-0.169,2.645-0.512,3.925l-22.443-9.045
			c-4.383-1.767-6.503-6.753-4.736-11.136c1.767-4.383,6.753-6.503,11.136-4.736L128,433.665z"/>
		<path style="fill:#A5A5A4;" d="M51.2,305.665v18.432c0.181-0.018,0.356-0.076,0.512-0.171l22.443-9.045
			c2.835-1.143,4.845-3.712,5.273-6.739c0.428-3.027-0.792-6.052-3.2-7.936c-2.408-1.884-5.638-2.34-8.473-1.197L51.2,305.665z"/>
		<path style="fill:#A5A5A4;" d="M51.2,348.331v18.432c0.181-0.018,0.356-0.076,0.512-0.171l22.443-9.045
			c4.383-1.767,6.503-6.753,4.736-11.136c-1.767-4.383-6.753-6.503-11.136-4.736L51.2,348.331z"/>
		<path style="fill:#A5A5A4;" d="M51.2,390.998v18.432c0.181-0.018,0.356-0.076,0.512-0.171l22.443-9.045
			c2.835-1.143,4.845-3.712,5.273-6.739c0.428-3.027-0.792-6.052-3.2-7.936c-2.408-1.884-5.638-2.34-8.473-1.197L51.2,390.998z"/>
		<path style="fill:#A5A5A4;" d="M51.2,433.665v14.336c-0.003,1.325,0.169,2.645,0.512,3.925l22.443-9.045
			c2.835-1.143,4.845-3.712,5.273-6.739c0.428-3.027-0.792-6.052-3.2-7.936c-2.408-1.884-5.638-2.34-8.473-1.197L51.2,433.665z"/>
	</g>
	<rect x="8.533" y="465.067" style="fill:#CB8252;" width="494.933" height="34.133"/>
	<g>
		<path style="fill:#805333;" d="M503.467,456.534H8.533c-4.713,0-8.533,3.821-8.533,8.533s3.821,8.533,8.533,8.533h494.933
			c4.713,0,8.533-3.82,8.533-8.533S508.18,456.534,503.467,456.534z"/>
		<path style="fill:#805333;" d="M8.533,490.667h76.8c4.713,0,8.533,3.82,8.533,8.533s-3.821,8.533-8.533,8.533h-76.8
			c-4.713,0-8.533-3.82-8.533-8.533S3.821,490.667,8.533,490.667z"/>
		<path style="fill:#805333;" d="M119.467,490.667h384c4.713,0,8.533,3.82,8.533,8.533s-3.82,8.533-8.533,8.533h-384
			c-4.713,0-8.533-3.82-8.533-8.533S114.754,490.667,119.467,490.667z"/>
	</g>
</g>
<g>
</g>
<g>
</g>
<g>
</g>
<g>
</g>
<g>
</g>
<g>
</g>
<g>
</g>
<g>
</g>
<g>
</g>
<g>
</g>
<g>
</g>
<g>
</g>
<g>
</g>
<g>
</g>
<g>
</g>
</svg>
