<?xml version="1.0"?>
<svg xmlns="http://www.w3.org/2000/svg" viewBox="0 0 64 64" width="512" height="512"><g id="Filled_outline" data-name="Filled outline"><path d="M36,35V57a4,4,0,0,1-4,4h0a4,4,0,0,1-4-4V35l4-8Z" style="fill:#7d8d9c"/><path d="M14,17V39a4,4,0,0,1-4,4h0a4,4,0,0,1-4-4V17l4-8Z" style="fill:#7d8d9c"/><path d="M58,23V45a4,4,0,0,1-4,4h0a4,4,0,0,1-4-4V23l4-8Z" style="fill:#7d8d9c"/><polygon points="28 35 25 32 25 27 32 27 28 35" style="fill:#38495c"/><polygon points="36 35 39 32 39 27 32 27 36 35" style="fill:#38495c"/><rect x="26" y="43" width="12" height="8" transform="translate(-15 79) rotate(-90)" style="fill:#dd3e46"/><rect x="31" y="36" width="2" height="5" style="fill:#38495c"/><polygon points="6 17 3 14 3 9 10 9 6 17" style="fill:#38495c"/><polygon points="14 17 17 14 17 9 10 9 14 17" style="fill:#38495c"/><rect x="4" y="25" width="12" height="8" transform="translate(-19 39) rotate(-90)" style="fill:#dd3e46"/><rect x="9" y="18" width="2" height="5" style="fill:#38495c"/><polygon points="50 23 47 20 47 15 54 15 50 23" style="fill:#38495c"/><polygon points="58 23 61 20 61 15 54 15 58 23" style="fill:#38495c"/><rect x="48" y="31" width="12" height="8" transform="translate(19 89) rotate(-90)" style="fill:#dd3e46"/><rect x="53" y="24" width="2" height="5" style="fill:#38495c"/><rect x="31" y="10" width="2" height="14" style="fill:#cfdfe8"/><rect x="25" y="8" width="2" height="14" style="fill:#cfdfe8"/><rect x="18" y="18" width="2" height="14" style="fill:#cfdfe8"/><rect x="44" y="26" width="2" height="14" style="fill:#cfdfe8"/><rect x="37" y="8" width="2" height="14" style="fill:#cfdfe8"/><rect x="50" y="2" width="2" height="10" style="fill:#cfdfe8"/><rect x="56" y="2" width="2" height="10" style="fill:#cfdfe8"/><rect x="6" y="2" width="2" height="4" style="fill:#cfdfe8"/><rect x="12" y="2" width="2" height="4" style="fill:#cfdfe8"/><path d="M27,57a5,5,0,0,0,10,0V35.414l3-3V26H24v6.414l3,3Zm8-5H29V42h6ZM33,40V36H31v4H29V35.236l3-6,3,6V40ZM32,60a3,3,0,0,1-3-3V54h6v3A3,3,0,0,1,32,60Zm6-32v3.586l-1.726,1.726L33.618,28ZM26,28h4.382l-2.656,5.312L26,31.586Z"/><path d="M5,39a5,5,0,0,0,10,0V17.414l3-3V8H2v6.414l3,3Zm8-5H7V24h6ZM11,22V18H9v4H7V17.236l3-6,3,6V22ZM10,42a3,3,0,0,1-3-3V36h6v3A3,3,0,0,1,10,42Zm6-32v3.586l-1.726,1.726L11.618,10ZM4,10H8.382L5.726,15.312,4,13.586Z"/><path d="M46,14v6.414l3,3V45a5,5,0,0,0,10,0V23.414l3-3V14ZM57,40H51V30h6ZM55,28V24H53v4H51V23.236l3-6,3,6V28ZM48,16h4.382l-2.656,5.312L48,19.586Zm6,32a3,3,0,0,1-3-3V42h6v3A3,3,0,0,1,54,48Zm6-32v3.586l-1.726,1.726L55.618,16Z"/><rect x="31" y="10" width="2" height="14"/><rect x="25" y="8" width="2" height="14"/><rect x="18" y="18" width="2" height="14"/><rect x="44" y="26" width="2" height="14"/><rect x="37" y="8" width="2" height="14"/><rect x="50" y="2" width="2" height="10"/><rect x="56" y="2" width="2" height="10"/><rect x="6" y="2" width="2" height="4"/><rect x="12" y="2" width="2" height="4"/></g></svg>
