<?xml version="1.0" encoding="iso-8859-1"?>
<!-- Generator: Adobe Illustrator 19.0.0, SVG Export Plug-In . SVG Version: 6.00 Build 0)  -->
<svg version="1.1" id="Capa_1" xmlns="http://www.w3.org/2000/svg" xmlns:xlink="http://www.w3.org/1999/xlink" x="0px" y="0px"
	 viewBox="0 0 480.004 480.004" style="enable-background:new 0 0 480.004 480.004;" xml:space="preserve">
<path style="fill:#5A6570;" d="M239.696,200c-4.418,0-8-3.582-8-8V8c0-4.418,3.582-8,8-8s8,3.582,8,8v184
	C247.696,196.418,244.114,200,239.696,200z"/>
<path style="fill:#EA676B;" d="M111.696,312c-0.001-33.948,13.484-66.506,37.488-90.512c49.986-49.988,131.031-49.99,181.019-0.005
	c0.002,0.002,0.003,0.003,0.005,0.005c24.004,24.006,37.489,56.564,37.488,90.512"/>
<path style="fill:#DD527C;" d="M127.696,312c-0.002-29.705,11.796-58.194,32.8-79.2c43.736-43.741,114.651-43.745,158.392-0.008
	c0.003,0.003,0.005,0.005,0.008,0.008c21.004,21.006,32.802,49.495,32.8,79.2"/>
<path style="fill:#DD156D;" d="M239.696,200v112h112c0.002-29.705-11.796-58.194-32.8-79.2
	C297.912,211.764,269.409,199.959,239.696,200z"/>
<path style="fill:#5A6570;" d="M381.752,472H97.64c-6.367,0.001-12.474-2.529-16.976-7.032c-9.369-9.372-9.369-24.564,0-33.936
	c4.502-4.503,10.609-7.033,16.976-7.032h284.112c6.367-0.001,12.474,2.529,16.976,7.032c9.369,9.372,9.369,24.564,0,33.936
	C394.226,469.471,388.119,472.001,381.752,472z"/>
<g>
	<path style="fill:#364E5E;" d="M403.144,437.352c-2.437,10.92-12.139,18.676-23.328,18.648H95.696
		c-9.12,0.085-17.462-5.122-21.392-13.352c-2.996,12.871,5.01,25.734,17.881,28.729c1.788,0.416,3.619,0.625,5.455,0.623h284.112
		c13.202,0.021,23.921-10.664,23.943-23.865C405.701,444.39,404.827,440.697,403.144,437.352z"/>
	<path style="fill:#364E5E;" d="M343.696,328h-80v-24c0-22.091,17.909-40,40-40s40,17.909,40,40V328z M279.696,312h48v-8
		c0-13.255-10.745-24-24-24s-24,10.745-24,24V312z"/>
</g>
<path style="fill:#E11A4C;" d="M79.296,328.4c-21.87,21.868-21.872,57.326-0.004,79.196c0.001,0.001,0.003,0.003,0.004,0.004
	c10.503,10.502,24.747,16.401,39.6,16.4h241.6c14.85-0.001,29.091-5.9,39.592-16.4l0.952-0.952
	c21.376-21.401,21.356-56.078-0.044-77.454c-0.065-0.065-0.13-0.13-0.196-0.194l-0.8-0.8c-10.521-10.392-24.716-16.213-39.504-16.2
	h-241.6C104.043,311.999,89.799,317.898,79.296,328.4L79.296,328.4z"/>
<path style="fill:#B21D48;" d="M413.888,349.728c-2.417,9.427-7.318,18.032-14.192,24.92l-0.952,0.952
	c-10.507,10.506-24.758,16.405-39.616,16.4h-241.6c-23.875,0.038-45.129-15.119-52.872-37.704
	c-7.604,29.942,10.505,60.379,40.447,67.983c4.508,1.145,9.142,1.723,13.793,1.721h241.6c14.85-0.001,29.091-5.9,39.592-16.4
	l0.952-0.952C415.934,391.736,420.933,369.592,413.888,349.728L413.888,349.728z"/>
<g>
	<path style="fill:#2BB3CE;" d="M436.696,422.84c-4.418-0.001-7.999-3.583-7.998-8.002c0-2.121,0.843-4.154,2.342-5.654
		c22.982-23.006,22.963-60.287-0.043-83.269c-0.073-0.073-0.147-0.146-0.221-0.219l-0.984-0.968
		c-3.07-3.178-2.982-8.242,0.196-11.312c3.1-2.995,8.016-2.995,11.116,0l0.888,0.864c29.432,29.058,29.735,76.474,0.676,105.905
		c-0.103,0.104-0.205,0.207-0.308,0.311C440.858,421.998,438.82,422.842,436.696,422.84z"/>
	<path style="fill:#2BB3CE;" d="M43.696,424c-2.122,0-4.156-0.844-5.656-2.344C8.261,391.783,8.286,343.442,38.096,313.6
		c3.178-3.07,8.242-2.982,11.312,0.196c2.995,3.1,2.995,8.016,0,11.116c-23.542,23.606-23.542,61.81,0,85.416
		c3.133,3.116,3.147,8.181,0.031,11.314C47.92,423.169,45.85,424.019,43.696,424z"/>
</g>
<g>
	<path style="fill:#FFFFFF;" d="M191.696,312h32v56h-32V312z"/>
	<path style="fill:#FFFFFF;" d="M255.696,312h32v56h-32V312z"/>
</g>
<g>
	<circle style="fill:#FFF89B;" cx="351.696" cy="368" r="24"/>
	<circle style="fill:#FFF89B;" cx="127.696" cy="368" r="24"/>
</g>
<path d="M406.728,412.304c24.498-24.521,24.479-64.258-0.042-88.756c-0.082-0.082-0.163-0.163-0.246-0.244l-0.8-0.76
	c-8.348-8.265-18.82-14.059-30.256-16.744c-2.967-69.547-58.187-125.51-127.688-129.408V8c0-4.418-3.582-8-8-8s-8,3.582-8,8v168.392
	c-69.501,3.902-124.717,59.869-127.68,129.416c-34.348,8.17-55.57,42.638-47.4,76.986c2.744,11.538,8.644,22.085,17.04,30.462
	c2.585,2.559,5.382,4.896,8.36,6.984c-15.376,8.624-20.849,28.079-12.225,43.455c5.653,10.078,16.31,16.314,27.865,16.305h284.12
	c17.565,0.262,32.017-13.765,32.279-31.33c0.177-11.833-6.23-22.785-16.631-28.43c2.974-2.091,5.768-4.427,8.352-6.984
	L406.728,412.304z M154.896,227.152c46.772-46.847,122.666-46.908,169.513-0.136c20.602,20.569,33.014,47.934,34.919,76.984h-15.576
	v-0.424c-0.117-22.107-18.133-39.933-40.24-39.816c-22.107,0.117-39.933,18.133-39.816,40.24H120.104
	C121.93,274.995,134.305,247.661,154.896,227.152L154.896,227.152z M327.696,304h-48c0-13.255,10.745-24,24-24
	S327.696,290.745,327.696,304z M279.696,320v40h-16v-40H279.696z M215.696,320v40h-16v-40H215.696z M397.776,448
	c0,8.837-7.163,16-16,16H97.656c-8.837,0-16-7.163-16-16s7.163-16,16-16h284.12C390.612,432,397.776,439.163,397.776,448z
	 M395.416,400.992l-0.952,0.952c-8.989,9.037-21.222,14.098-33.968,14.056h-241.6c-26.51,0-48-21.49-48-48c0-26.51,21.49-48,48-48
	h64.8v48c0,4.418,3.582,8,8,8h32c4.418,0,8-3.582,8-8v-48h16v48c0,4.418,3.582,8,8,8h32c4.418,0,8-3.582,8-8v-48h64.8
	c12.724-0.033,24.939,4.995,33.952,13.976l0.728,0.712c18.369,18.159,18.539,47.77,0.38,66.139c-0.055,0.055-0.109,0.11-0.164,0.165
	H395.416z"/>
<path d="M441.128,313.416c-3.178-3.07-8.242-2.982-11.312,0.196c-2.995,3.1-2.995,8.016,0,11.116l0.984,0.968
	c23.127,22.873,23.333,60.163,0.461,83.29c-0.065,0.066-0.131,0.132-0.197,0.198c-3.178,3.07-3.266,8.134-0.196,11.312
	c3.07,3.178,8.134,3.266,11.312,0.196c0.066-0.064,0.132-0.13,0.196-0.196c29.23-29.261,29.204-76.678-0.057-105.908
	c-0.103-0.103-0.207-0.206-0.311-0.308L441.128,313.416z"/>
<path d="M49.408,313.6c-3.124-3.123-8.188-3.123-11.312,0c-29.792,29.852-29.792,78.188,0,108.04
	c3.178,3.07,8.242,2.982,11.312-0.196c2.994-3.1,2.994-8.016,0-11.116c-23.542-23.606-23.542-61.81,0-85.416
	C52.531,321.788,52.531,316.724,49.408,313.6L49.408,313.6z"/>
<path d="M351.696,336c-17.673,0-32,14.327-32,32c0,17.673,14.327,32,32,32s32-14.327,32-32C383.696,350.327,369.369,336,351.696,336
	z M351.696,384c-8.837,0-16-7.163-16-16s7.163-16,16-16s16,7.163,16,16S360.532,384,351.696,384z"/>
<path d="M127.696,336c-17.673,0-32,14.327-32,32c0,17.673,14.327,32,32,32s32-14.327,32-32C159.696,350.327,145.369,336,127.696,336
	z M127.696,384c-8.837,0-16-7.163-16-16s7.163-16,16-16s16,7.163,16,16S136.532,384,127.696,384z"/>
<g>
</g>
<g>
</g>
<g>
</g>
<g>
</g>
<g>
</g>
<g>
</g>
<g>
</g>
<g>
</g>
<g>
</g>
<g>
</g>
<g>
</g>
<g>
</g>
<g>
</g>
<g>
</g>
<g>
</g>
</svg>
