<?xml version="1.0" encoding="iso-8859-1"?>
<!-- Generator: Adobe Illustrator 19.0.0, SVG Export Plug-In . SVG Version: 6.00 Build 0)  -->
<svg version="1.1" id="Capa_1" xmlns="http://www.w3.org/2000/svg" xmlns:xlink="http://www.w3.org/1999/xlink" x="0px" y="0px"
	 viewBox="0 0 511.998 511.998" style="enable-background:new 0 0 511.998 511.998;" xml:space="preserve">
<path style="fill:#D2D2D2;" d="M375,107.083c-6.903,0-12.5-5.597-12.5-12.5V57.804c0-8.852-7.202-16.054-16.054-16.054H165.554
	c-8.852,0-16.054,7.202-16.054,16.054v36.778c0,6.903-5.596,12.5-12.5,12.5c-6.904,0-12.5-5.597-12.5-12.5V57.804
	c0-22.637,18.417-41.055,41.055-41.055h180.891c22.637,0,41.055,18.417,41.055,41.055v36.778
	C387.5,101.487,381.904,107.083,375,107.083z"/>
<g>
	<path style="fill:#3A484A;" d="M94,403.249v71.323c0,11.42,9.257,20.677,20.677,20.677h13.646c11.42,0,20.677-9.257,20.677-20.677
		v-71.323H94z"/>
	<path style="fill:#3A484A;" d="M418,403.249v71.323c0,11.42-9.257,20.677-20.677,20.677h-13.646
		c-11.42,0-20.677-9.257-20.677-20.677v-71.323H418z"/>
</g>
<path style="fill:#B8B8B8;" d="M85.012,235.084c-0.26,0-0.52-0.008-0.784-0.025c-5.693-0.352-56.027-4.249-70.358-32.287
	c-3.142-6.147-0.706-13.678,5.441-16.82c6.149-3.143,13.678-0.705,16.82,5.441c2.922,5.715,12.397,11.07,25.997,14.691
	c12.257,3.264,23.546,4.016,23.658,4.023c6.884,0.441,12.116,6.376,11.682,13.26C97.051,229.989,91.556,235.084,85.012,235.084z"/>
<circle style="fill:#D2D2D2;" cx="25" cy="197.083" r="25"/>
<path style="fill:#B8B8B8;" d="M426.988,235.084c0.26,0,0.52-0.008,0.784-0.025c5.693-0.352,56.027-4.249,70.358-32.287
	c3.142-6.147,0.706-13.678-5.441-16.82c-6.149-3.143-13.678-0.705-16.82,5.441c-2.922,5.715-12.397,11.07-25.997,14.691
	c-12.257,3.264-23.546,4.016-23.658,4.023c-6.884,0.441-12.116,6.376-11.682,13.26C414.949,229.989,420.444,235.084,426.988,235.084
	z"/>
<circle style="fill:#D2D2D2;" cx="486.997" cy="197.083" r="25"/>
<g>
	<path style="fill:#B8B8B8;" d="M438,379.091l-22.333-18.421H92.421L74,379.091c-8.336,0-15.094,6.758-15.094,15.094v23.971
		c0,8.336,6.758,15.094,15.094,15.094h364c8.336,0,15.094-6.758,15.094-15.094v-23.971C453.094,385.849,446.336,379.091,438,379.091
		z"/>
	<path style="fill:#B8B8B8;" d="M137,107.083c6.904,0,12.5-5.597,12.5-12.5V57.804c0-3.265,0.985-6.302,2.666-8.84
		c-9.611,1.263-18.865,3.672-27.621,7.084c-0.025,0.583-0.044,1.167-0.044,1.755v36.778C124.5,101.486,130.096,107.083,137,107.083z
		"/>
	<path style="fill:#B8B8B8;" d="M362.5,57.804v36.778c0,6.903,5.597,12.5,12.5,12.5s12.5-5.597,12.5-12.5V57.804
		c0-0.588-0.02-1.172-0.044-1.755c-8.758-3.412-18.011-5.821-27.622-7.084C361.514,51.502,362.5,54.539,362.5,57.804z"/>
</g>
<path style="fill:#EFEDEE;" d="M74,244.583v-77.06c0-51.82,42.01-93.83,93.83-93.83h176.34c51.82,0,93.83,42.01,93.83,93.83v77.06
	l-159.67,134.51h-44.66L74,244.583z"/>
<g>
	<path style="fill:#7CB777;" d="M233.67,379.093H74v-134.51C74,244.583,233.67,237.603,233.67,379.093z"/>
	<path style="fill:#7CB777;" d="M438,244.583v134.51H278.33C278.33,237.603,438,244.583,438,244.583z"/>
</g>
<path style="fill:#85E7FF;" d="M109,210.09v-42.57c0-32.438,26.39-58.828,58.828-58.828h176.343
	c32.437,0,58.828,26.39,58.828,58.828v42.57H109z"/>
<path style="fill:#57D0E6;" d="M198.733,108.692h-30.905c-32.438,0-58.828,26.39-58.828,58.827v42.57h30.905v-42.57
	C139.906,135.082,166.296,108.692,198.733,108.692z"/>
<g>
	<path style="fill:#3A484A;" d="M179.8,172.77c-4.267,0-7.726-3.459-7.726-7.726v-13.791c0-4.267,3.459-7.726,7.726-7.726
		c4.267,0,7.726,3.459,7.726,7.726v13.791C187.526,169.311,184.067,172.77,179.8,172.77z"/>
	<path style="fill:#3A484A;" d="M332.2,172.77c-4.267,0-7.726-3.459-7.726-7.726v-13.791c0-4.267,3.459-7.726,7.726-7.726
		s7.726,3.459,7.726,7.726v13.791C339.927,169.311,336.467,172.77,332.2,172.77z"/>
	<path style="fill:#3A484A;" d="M256,180.132c-9.559,0-18.535-3.995-24.624-10.962c-2.809-3.213-2.481-8.093,0.731-10.902
		c3.213-2.809,8.094-2.481,10.902,0.731c3.155,3.61,7.89,5.679,12.991,5.679c5.1,0,9.835-2.07,12.991-5.679
		c2.808-3.213,7.689-3.542,10.902-0.731c3.213,2.808,3.541,7.689,0.731,10.902C274.535,176.136,265.559,180.132,256,180.132z"/>
</g>
<g>
	<circle style="fill:#FADC60;" cx="132.749" cy="319.335" r="25.75"/>
	<circle style="fill:#FADC60;" cx="379.251" cy="319.335" r="25.75"/>
</g>
<path style="fill:#EFEDEE;" d="M288.423,408.466h-64.845c-6.843,0-12.39,5.548-12.39,12.39v25.698c0,6.843,5.548,12.39,12.39,12.39
	h64.845c6.843,0,12.39-5.548,12.39-12.39v-25.698C300.813,414.014,295.265,408.466,288.423,408.466z"/>
<g>
</g>
<g>
</g>
<g>
</g>
<g>
</g>
<g>
</g>
<g>
</g>
<g>
</g>
<g>
</g>
<g>
</g>
<g>
</g>
<g>
</g>
<g>
</g>
<g>
</g>
<g>
</g>
<g>
</g>
</svg>
