<svg id="Capa_1" enable-background="new 0 0 512 512" height="512" viewBox="0 0 512 512" width="512" xmlns="http://www.w3.org/2000/svg"><g><g><g><g><g><path d="m391 450h-270v-165c0-54.976 32.871-103.989 83.701-124.878l10.049-4.116 7.061 8.218c17.168 20.068 51.211 20.068 68.379 0l7.061-8.218 10.049 4.116c50.829 20.889 83.7 69.902 83.7 124.878z" fill="#ff8cd8"/></g></g></g></g><path d="m391 450v-165c0-54.976-32.871-103.989-83.701-124.878l-10.049-4.116-7.061 8.218c-8.584 10.034-21.387 15.051-34.189 15.051v270.725z" fill="#ff73b9"/><g><path d="m352.211 120 43.184-43.184-21.211-21.211-68.789 68.79 10.605 10.605v15h105v-30z" fill="#3d4566"/><path d="m137.816 55.605-21.211 21.211 43.184 43.184h-68.789v30h105v-15l10.605-10.605z" fill="#4d5e80"/></g><circle cx="256" cy="135" fill="#ff73b9" r="75"/><path d="m331 135c0-41.422-33.578-75-75-75v150c41.422 0 75-33.58 75-75z" fill="#f25588"/><circle cx="256" cy="135" fill="#ffdf40" r="45"/><path d="m301 135c0-24.813-20.187-45-45-45v90c24.813 0 45-20.187 45-45z" fill="#ffbe40"/><g id="Scooter_1_"><g><path d="m106 90c-24.814 0-45-20.186-45-45s20.186-45 45-45 45 20.186 45 45-20.186 45-45 45z" fill="#f3f5f9"/></g><g><path d="m406 90c-24.814 0-45-20.186-45-45s20.186-45 45-45 45 20.186 45 45-20.186 45-45 45z" fill="#e1e6f0"/></g></g><path d="m226 482c0 16.538 13.447 30 30 30s30-13.462 30-30v-122h-60z" fill="#4d5e80"/><path d="m256 512c16.553 0 30-13.462 30-30v-122h-30z" fill="#3d4566"/><path d="m331 330c0-16.538-13.447-30-30-30h-90c-16.553 0-30 13.462-30 30v60h150z" fill="#ff73b9"/><path d="m301 300h-45v90h75v-60c0-16.538-13.447-30-30-30z" fill="#f25588"/></g></svg>