<?xml version="1.0" encoding="iso-8859-1"?>
<!-- Generator: Adobe Illustrator 19.0.0, SVG Export Plug-In . SVG Version: 6.00 Build 0)  -->
<svg version="1.1" id="Capa_1" xmlns="http://www.w3.org/2000/svg" xmlns:xlink="http://www.w3.org/1999/xlink" x="0px" y="0px"
	 viewBox="0 0 512 512" style="enable-background:new 0 0 512 512;" xml:space="preserve">
<g>
	<path style="fill:#4D4D4D;" d="M164.481,428.293v70.28c0,7.419-6.019,13.427-13.437,13.427h-33.552
		c-7.419,0-13.427-6.008-13.427-13.427v-70.28H164.481z"/>
	<path style="fill:#4D4D4D;" d="M407.943,428.293v70.28c0,7.419-6.019,13.427-13.437,13.427h-33.552
		c-7.419,0-13.427-6.008-13.427-13.427v-70.28H407.943z"/>
</g>
<g>
	<path style="fill:#666666;" d="M164.481,428.293v70.28c0,7.419-6.019,13.427-13.437,13.427h-16.833
		c-7.419,0-13.427-6.008-13.427-13.427v-70.28H164.481z"/>
	<path style="fill:#666666;" d="M407.943,428.293v70.28c0,7.419-6.019,13.427-13.437,13.427h-16.833
		c-7.419,0-13.427-6.008-13.427-13.427v-70.28H407.943z"/>
</g>
<g>
	<rect x="104.062" y="428.294" style="fill:#4D4D4D;" width="60.415" height="53.287"/>
	<rect x="347.524" y="428.294" style="fill:#4D4D4D;" width="60.415" height="53.287"/>
</g>
<path style="fill:#428FCE;" d="M476.829,135.074H289.681v128.523h187.147c13.212,0,23.923-10.71,23.923-23.923v-80.678
	C500.751,145.785,490.041,135.074,476.829,135.074z"/>
<path style="fill:#3180B5;" d="M35.172,135.074h187.637v128.523H35.172c-13.212,0-23.923-10.71-23.923-23.923v-80.678
	C11.249,145.785,21.96,135.074,35.172,135.074z"/>
<path style="fill:#428FCE;" d="M403.942,0H108.058C80.686,0,58.495,22.191,58.495,49.564v352.458
	c0,27.373,22.191,49.564,49.564,49.564h295.884c27.373,0,49.564-22.191,49.564-49.564V49.564C453.506,22.191,431.315,0,403.942,0z"
	/>
<path style="fill:#3180B5;" d="M97.436,402.022V49.564C97.436,22.191,119.627,0,147,0h-38.942C80.686,0,58.495,22.191,58.495,49.564
	v352.458c0,27.373,22.191,49.564,49.564,49.564h38.942C119.627,451.586,97.436,429.395,97.436,402.022z"/>
<g>
	<circle style="fill:#C3F4EE;" cx="114.156" cy="393.854" r="28.735"/>
	<circle style="fill:#C3F4EE;" cx="397.846" cy="393.854" r="28.735"/>
</g>
<g>
	<path style="fill:#A5E5DF;" d="M120.952,393.853c0,11.975-7.335,22.246-17.763,26.561c-10.428-4.305-17.763-14.587-17.763-26.561
		c0-11.985,7.335-22.256,17.763-26.561C113.617,371.597,120.952,381.868,120.952,393.853z"/>
	<path style="fill:#A5E5DF;" d="M404.642,393.853c0,11.975-7.335,22.246-17.763,26.561c-10.428-4.305-17.763-14.587-17.763-26.561
		c0-11.985,7.335-22.256,17.763-26.561C397.307,371.597,404.642,381.868,404.642,393.853z"/>
</g>
<g>
	<path style="fill:#3180B5;" d="M114.16,430.425c-4.839,0-9.541-0.933-13.974-2.771c-13.723-5.665-22.597-18.935-22.597-33.8
		c0-14.867,8.875-28.135,22.61-33.806c4.419-1.834,9.121-2.766,13.962-2.766c20.166,0,36.572,16.406,36.572,36.572
		S134.326,430.425,114.16,430.425z M114.16,372.955c-2.768,0-5.449,0.53-7.967,1.575c-7.86,3.244-12.931,10.827-12.931,19.323
		c0,8.495,5.071,16.078,12.917,19.317c2.533,1.05,5.214,1.581,7.981,1.581c11.523,0,20.898-9.375,20.898-20.898
		S125.682,372.955,114.16,372.955z"/>
	<path style="fill:#3180B5;" d="M397.85,430.425c-4.839,0-9.541-0.933-13.974-2.771c-13.723-5.665-22.597-18.935-22.597-33.8
		c0-14.867,8.875-28.135,22.61-33.806c4.419-1.834,9.121-2.766,13.962-2.766c20.166,0,36.572,16.406,36.572,36.572
		S418.016,430.425,397.85,430.425z M397.85,372.955c-2.768,0-5.449,0.53-7.967,1.575c-7.86,3.244-12.931,10.827-12.931,19.323
		c0,8.495,5.071,16.078,12.917,19.317c2.533,1.05,5.214,1.581,7.981,1.581c11.523,0,20.898-9.375,20.898-20.898
		S409.373,372.955,397.85,372.955z"/>
</g>
<path style="fill:#A5E5DF;" d="M453.502,68.816v234.037c0,15.339-12.434,27.784-27.773,27.784H86.272
	c-15.339,0-27.773-12.445-27.773-27.784V68.816c0-15.35,12.434-27.784,27.773-27.784h339.457
	C441.068,41.032,453.502,53.466,453.502,68.816z"/>
<path style="fill:#82BFB8;" d="M98.173,41.032c-0.481,2.769-0.731,5.622-0.731,8.537v281.068h-11.17
	c-15.339,0-27.773-12.445-27.773-27.784V68.816c0-15.35,12.434-27.784,27.773-27.784H98.173z"/>
<path style="fill:#C3F4EE;" d="M413.827,41.032c0.481,2.769,0.731,5.622,0.731,8.537v281.068h11.17
	c15.339,0,27.773-12.445,27.773-27.784V68.816c0-15.35-12.434-27.784-27.773-27.784H413.827z"/>
<path style="fill:#E6E6E6;" d="M453.502,68.816v45.359H58.498V68.816c0-15.35,12.434-27.784,27.773-27.784h339.457
	C441.068,41.032,453.502,53.466,453.502,68.816z"/>
<path style="fill:#B3B3B3;" d="M98.173,41.032c-0.481,2.769-0.731,5.622-0.731,8.537v64.606H58.498V68.816
	c0-15.35,12.434-27.784,27.773-27.784C86.272,41.032,98.173,41.032,98.173,41.032z"/>
<path style="fill:#F2F2F2;" d="M453.502,68.816v45.359h-38.943V49.569c0-2.915-0.251-5.768-0.731-8.537h11.901
	C441.068,41.032,453.502,53.466,453.502,68.816z"/>
<path style="fill:#3180B5;" d="M308.023,368.249H202.378c-16.993,0-30.769,13.776-30.769,30.769v14.294
	c0,21.137-17.135,38.273-38.273,38.273h-25.277h295.884h-26.878c-21.137,0-38.273-17.135-38.273-38.273v-14.294
	C338.793,382.025,325.017,368.249,308.023,368.249z"/>
<path style="fill:#4D4D4D;" d="M302.966,432.87h-93.931c-6.666,0-12.072-5.404-12.072-12.072v-14.519
	c0-6.666,5.404-12.072,12.072-12.072h93.931c6.666,0,12.072,5.404,12.072,12.072v14.519
	C315.037,427.465,309.633,432.87,302.966,432.87z"/>
<g>
</g>
<g>
</g>
<g>
</g>
<g>
</g>
<g>
</g>
<g>
</g>
<g>
</g>
<g>
</g>
<g>
</g>
<g>
</g>
<g>
</g>
<g>
</g>
<g>
</g>
<g>
</g>
<g>
</g>
</svg>
