<svg id="Flat" height="512" viewBox="0 0 128 128" width="512" xmlns="http://www.w3.org/2000/svg"><path d="m20.61 110.42v13.42a2.91 2.91 0 0 0 2.92 2.91h10.47a2.91 2.91 0 0 0 2.92-2.91v-13.42z" fill="#3d4c70"/><path d="m36.94 123.29v.54a2.92 2.92 0 0 1 -2.94 2.92h-10.47a2.92 2.92 0 0 1 -2.92-2.92v-13.41h3.12v11.81a1.06 1.06 0 0 0 1.07 1.06z" fill="#2f3a5a"/><path d="m91.06 110.42v13.42a2.91 2.91 0 0 0 2.94 2.91h10.49a2.91 2.91 0 0 0 2.92-2.91v-13.42z" fill="#3d4c70"/><path d="m107.39 110.42v13.41a2.92 2.92 0 0 1 -2.92 2.92h-10.47a2.92 2.92 0 0 1 -2.92-2.92v-.33h11.46a1.36 1.36 0 0 0 1.37-1.36v-11.72z" fill="#2f3a5a"/><path d="m12.51 38.89a1 1 0 0 1 -1-1v-10a3.5 3.5 0 0 1 3.5-3.5h8a1 1 0 0 1 0 2h-8.01a1.5 1.5 0 0 0 -1.5 1.5v10a1 1 0 0 1 -.99 1z" fill="#2f3a5a"/><path d="m115.49 38.89a1 1 0 0 1 -1-1v-10a1.5 1.5 0 0 0 -1.5-1.5h-8a1 1 0 0 1 0-2h8a3.5 3.5 0 0 1 3.5 3.5v10a1 1 0 0 1 -1 1z" fill="#2f3a5a"/><rect fill="#3d4c70" height="21.26" rx="1.62" width="9.36" x="110.81" y="32.17"/><path d="m98.59 3.93a224.15 224.15 0 0 0 -69.18 0 7.58 7.58 0 0 0 -6.4 7.5v87.57h82v-87.57a7.58 7.58 0 0 0 -6.42-7.5z" fill="#fac77c"/><path d="m105 22.21v-10.78a7.58 7.58 0 0 0 -6.4-7.5 224.15 224.15 0 0 0 -69.18 0 7.58 7.58 0 0 0 -6.4 7.5v10.78z" fill="#faba59"/><path d="m106.33 71.24h-13a2.92 2.92 0 0 1 -2.75-1.94l-1.94-5.41a4.12 4.12 0 0 0 -3.88-2.73h-41.5a4.12 4.12 0 0 0 -3.88 2.73l-1.94 5.41a2.92 2.92 0 0 1 -2.75 1.94h-13a5.63 5.63 0 0 0 -5.69 5.62v22.14h96v-22.14a5.63 5.63 0 0 0 -5.67-5.62z" fill="#faba59"/><rect fill="#3d4c70" height="11.94" rx="2.44" width="108.23" x="9.89" y="98.98"/><path d="m118.11 101.43v7a2.44 2.44 0 0 1 -2.44 2.44h-103.34a2.44 2.44 0 0 1 -2.44-2.44v-2.13h103.42a.93.93 0 0 0 .93-.92v-6.38h1.43a2.44 2.44 0 0 1 2.44 2.43z" fill="#2f3a5a"/><rect fill="#a9ddc7" height="27.07" rx="2.73" width="29.21" x="31.1" y="27.87"/><path d="m60.31 51.42v.8a2.72 2.72 0 0 1 -2.72 2.78h-23.76a2.73 2.73 0 0 1 -2.73-2.73v-21.67a2.73 2.73 0 0 1 2.73-2.73h1v22.13a1.46 1.46 0 0 0 1.47 1.47z" fill="#8ccfb5"/><path d="m57.59 55.94h-23.76a3.73 3.73 0 0 1 -3.73-3.72v-21.62a3.73 3.73 0 0 1 3.73-3.73h23.76a3.73 3.73 0 0 1 3.72 3.73v21.62a3.73 3.73 0 0 1 -3.72 3.72zm-23.76-27.07a1.74 1.74 0 0 0 -1.73 1.73v21.62a1.73 1.73 0 0 0 1.73 1.72h23.76a1.72 1.72 0 0 0 1.72-1.72v-21.62a1.73 1.73 0 0 0 -1.72-1.73z" fill="#faba59"/><rect fill="#a9ddc7" height="27.07" rx="2.73" width="29.21" x="67.69" y="27.87"/><path d="m96.9 30.6v21.62a2.73 2.73 0 0 1 -2.73 2.78h-23.76a2.72 2.72 0 0 1 -2.72-2.73v-.8h24.1a1.41 1.41 0 0 0 1.42-1.47v-22.13h1a2.73 2.73 0 0 1 2.69 2.73z" fill="#8ccfb5"/><path d="m94.17 55.94h-23.76a3.73 3.73 0 0 1 -3.72-3.72v-21.62a3.73 3.73 0 0 1 3.72-3.73h23.76a3.73 3.73 0 0 1 3.73 3.73v21.62a3.73 3.73 0 0 1 -3.73 3.72zm-23.76-27.07a1.73 1.73 0 0 0 -1.72 1.73v21.62a1.72 1.72 0 0 0 1.72 1.72h23.76a1.73 1.73 0 0 0 1.73-1.72v-21.62a1.74 1.74 0 0 0 -1.73-1.73z" fill="#faba59"/><path d="m94.64 9.64a3.81 3.81 0 1 0 3.81 3.8 3.81 3.81 0 0 0 -3.81-3.8z" fill="#ef5361"/><path d="m83.27 9.64a3.81 3.81 0 1 0 3.81 3.8 3.8 3.8 0 0 0 -3.81-3.8z" fill="#dbe2eb"/><path d="m33.36 9.64a3.81 3.81 0 1 1 -3.81 3.8 3.81 3.81 0 0 1 3.81-3.8z" fill="#ef5361"/><path d="m44.73 9.64a3.81 3.81 0 1 1 -3.81 3.8 3.8 3.8 0 0 1 3.81-3.8z" fill="#dbe2eb"/><circle cx="99.34" cy="83.86" fill="#dbe2eb" r="4.87" transform="matrix(.973 -.23 .23 .973 -16.61 25.07)"/><circle cx="28.66" cy="83.86" fill="#dbe2eb" r="4.87" transform="matrix(.973 -.23 .23 .973 -18.5 8.83)"/><g fill="#3d4c70"><path d="m77.28 72.58h-26.56a1 1 0 0 1 0-2h26.56a1 1 0 0 1 0 2z"/><path d="m77.28 78.88h-26.56a1 1 0 0 1 0-2h26.56a1 1 0 0 1 0 2z"/><path d="m77.28 85.18h-26.56a1 1 0 0 1 0-2h26.56a1 1 0 0 1 0 2z"/><path d="m77.28 91.48h-26.56a1 1 0 1 1 0-2h26.56a1 1 0 0 1 0 2z"/><rect height="21.26" rx="1.62" width="9.36" x="7.83" y="32.17"/></g><rect fill="#fac77c" height="7.62" rx=".76" width="20.09" x="54.57" y="9.64"/></svg>