<svg id="Icons" height="512" viewBox="0 0 74 74" width="512" xmlns="http://www.w3.org/2000/svg"><path d="m16.918 30.69a.5.5 0 0 1 -.278-.916l2.042-1.369a.5.5 0 0 1 .48-.042l2.678 1.179a.5.5 0 1 1 -.4.915l-2.427-1.068-1.813 1.216a.491.491 0 0 1 -.282.085z" fill="#323c6b"/><path d="m57.082 30.69a.491.491 0 0 1 -.278-.085l-1.815-1.216-2.427 1.068a.5.5 0 1 1 -.4-.915l2.678-1.179a.506.506 0 0 1 .48.042l2.042 1.369a.5.5 0 0 1 -.278.916z" fill="#323c6b"/><path d="m21.257 51.132v7.856a3.551 3.551 0 0 0 .7 2.112c.963 1.3 2.6 3.654 2.823 4.922.32 1.811-.88 4.966 12.22 4.966s11.9-3.155 12.219-4.966c.223-1.268 1.86-3.623 2.823-4.922a3.551 3.551 0 0 0 .7-2.112v-7.856l-.171-28.777a6.689 6.689 0 0 1 .339-2.142 6.687 6.687 0 0 0 .309-2.738l-.541-5.675c-2.589-9.516-15.678-8.774-15.678-8.774s-13.089-.742-15.678 8.774l-.542 5.674a6.687 6.687 0 0 0 .309 2.738 6.689 6.689 0 0 1 .339 2.142z" fill="#fca495"/><path d="m50.029 61.943s-3.206 4.031-3.524 5.842a4.626 4.626 0 0 1 -.822 2.194c3.132-1.105 3.341-2.848 3.536-3.957.223-1.268 1.86-3.623 2.823-4.922a3.551 3.551 0 0 0 .7-2.112v-7.856l-.171-28.777a6.689 6.689 0 0 1 .339-2.142 6.684 6.684 0 0 0 .309-2.737l-.541-5.676c-2.589-9.516-15.678-8.774-15.678-8.774s-7.653-.418-12.412 3.642a22.427 22.427 0 0 1 9.7-1.879s13.089-.742 15.678 8.775l.675 7.076-.788 2.379s1.239 13.944.788 19.944z" fill="#ea8d81"/><path d="m49.547 22.29q-12.547-6.817-25.094 0l1.741 8.485a35.837 35.837 0 0 1 21.612 0z" fill="#ededed"/><path d="m27.352 56.992a19.071 19.071 0 0 0 19.3 0l-1.342-7.127a27.548 27.548 0 0 1 -16.62 0z" fill="#dbd8dd"/><path d="m37 60.1a20.561 20.561 0 0 1 -9.887-2.673.5.5 0 0 1 -.252-.532l1.339-7.122a.5.5 0 0 1 .233-.336.5.5 0 0 1 .406-.049 27.189 27.189 0 0 0 16.324 0 .494.494 0 0 1 .406.049.5.5 0 0 1 .233.336l1.337 7.127a.5.5 0 0 1 -.252.532 20.561 20.561 0 0 1 -9.887 2.668zm-9.089-3.38a18.593 18.593 0 0 0 18.178 0l-1.169-6.22a28.1 28.1 0 0 1 -15.84 0z" fill="#323c6b"/><path d="m37 71.488c-11.3 0-12.435-2.29-12.651-4.841-.016-.189-.031-.37-.061-.539a15.619 15.619 0 0 0 -2.732-4.708 4.016 4.016 0 0 1 -.8-2.409v-7.862l.171-28.777a6.175 6.175 0 0 0 -.314-1.982 7.123 7.123 0 0 1 -.331-2.942l.541-5.674c2.679-9.879 16.07-9.234 16.2-9.227.079-.006 13.469-.652 16.133 9.143l.634 6.573a7.276 7.276 0 0 1 .01 1.261l-.127 1.57c-.011.138-.017.275-.019.411l-.416 29.654v7.849a4.016 4.016 0 0 1 -.8 2.409 15.619 15.619 0 0 0 -2.732 4.711c-.03.169-.045.35-.061.539-.21 2.553-1.345 4.841-12.645 4.841zm-15.243-20.355v7.855a3.022 3.022 0 0 0 .6 1.814c1.2 1.624 2.685 3.832 2.913 5.134.035.2.053.406.072.627.133 1.562.333 3.925 11.655 3.925s11.522-2.363 11.655-3.925c.019-.221.037-.431.072-.627.228-1.3 1.71-3.51 2.913-5.134a3.022 3.022 0 0 0 .6-1.814v-7.856l.416-29.66c0-.159.009-.32.022-.479l.127-1.569a6.253 6.253 0 0 0 -.008-1.086l-.619-6.489c-2.433-8.939-15.019-8.327-15.147-8.324-.184 0-12.772-.6-15.224 8.408l-.526 5.59a6.161 6.161 0 0 0 .285 2.533 7.14 7.14 0 0 1 .365 2.3z" fill="#323c6b"/><path d="m49.547 22.29q-12.547-6.817-25.094 0l1.741 8.485a35.837 35.837 0 0 1 21.612 0z" fill="#dbd8dd"/><path d="m47.806 31.275a.465.465 0 0 1 -.147-.023 35.531 35.531 0 0 0 -21.318 0 .5.5 0 0 1 -.637-.377l-1.741-8.485a.5.5 0 0 1 .251-.54c8.485-4.609 17.087-4.609 25.572 0a.5.5 0 0 1 .251.54l-1.737 8.485a.5.5 0 0 1 -.49.4zm-10.806-2.661a36.882 36.882 0 0 1 10.426 1.524l1.556-7.584a24.343 24.343 0 0 0 -23.964 0l1.556 7.584a36.882 36.882 0 0 1 10.426-1.524z" fill="#323c6b"/><path d="m24.62 14.471a.339.339 0 0 1 -.045 0 .5.5 0 0 1 -.454-.542c.505-5.686 4.621-5.884 4.662-5.885a.5.5 0 0 1 .035 1c-.144.007-3.277.208-3.7 4.975a.5.5 0 0 1 -.498.452z" fill="#323c6b"/><path d="m48.88 14.471a.5.5 0 0 1 -.5-.455c-.424-4.775-3.568-4.969-3.7-4.975a.5.5 0 0 1 .035-1c.041 0 4.157.2 4.662 5.885a.5.5 0 0 1 -.454.542.339.339 0 0 1 -.043.003z" fill="#323c6b"/><path d="m21.38 31.423 4.739 5.672v9.193l-4.862 4.844z" fill="#dbd8dd"/><path d="m21.257 51.632a.505.505 0 0 1 -.194-.039.5.5 0 0 1 -.306-.464l.122-19.709a.5.5 0 0 1 .884-.318l4.74 5.672a.5.5 0 0 1 .116.321v9.193a.5.5 0 0 1 -.147.354l-4.862 4.844a.5.5 0 0 1 -.353.146zm.614-18.841-.107 17.129 3.855-3.84v-8.8z" fill="#323c6b"/><path d="m53.039 30.922-5.158 6.173v9.193l4.862 4.844z" fill="#dbd8dd"/><path d="m52.743 51.632a.5.5 0 0 1 -.353-.146l-4.862-4.844a.5.5 0 0 1 -.147-.354v-9.188a.5.5 0 0 1 .116-.321l5.158-6.179a.5.5 0 0 1 .884.328l-.3 20.209a.5.5 0 0 1 -.5.493zm-4.362-5.552 3.879 3.865.258-17.62-4.137 4.951z" fill="#323c6b"/><path d="m28.5 67.125a.5.5 0 0 1 -.159-.026l-1.4-.472a.5.5 0 0 1 .319-.948l1.4.472a.5.5 0 0 1 -.16.974z" fill="#323c6b"/><path d="m45.5 67.125a.5.5 0 0 1 -.16-.974l1.4-.472a.5.5 0 0 1 .319.948l-1.4.472a.5.5 0 0 1 -.159.026z" fill="#323c6b"/><path d="m49.009 24.022.538-1.732c-8.365-3.876-16.594-4.032-24.959-.157l.4 1.889a28.407 28.407 0 0 1 24.021 0z" fill="#bbbbcd"/><g opacity=".4"><path d="m30.8 29.077 2.512-9.511c-.2.064-.439.151-.773.27a3.632 3.632 0 0 1 -.7.154l-2.518 9.533c.501-.144.984-.323 1.479-.446z" fill="#eeefee"/></g><g opacity=".4"><path d="m33.552 28.97 2.531-9.584c-.28 0-.56-.013-.84-.009l-2.515 9.523c.272.008.549.034.824.07z" fill="#eeefee"/></g><g opacity=".4"><path d="m36.185 28.606 2.423-9.173c-.4 0-.8-.016-1.2-.027l-2.467 9.338a9.433 9.433 0 0 1 1.244-.138z" fill="#eeefee"/></g><g fill="#323c6b"><path d="m47.806 31.275a.465.465 0 0 1 -.147-.023 35.531 35.531 0 0 0 -21.318 0 .5.5 0 0 1 -.637-.377l-1.741-8.485a.5.5 0 0 1 .251-.54c8.485-4.609 17.087-4.609 25.572 0a.5.5 0 0 1 .251.54l-1.737 8.485a.5.5 0 0 1 -.49.4zm-10.806-2.661a36.882 36.882 0 0 1 10.426 1.524l1.556-7.584a24.343 24.343 0 0 0 -23.964 0l1.556 7.584a36.882 36.882 0 0 1 10.426-1.524z"/><path d="m55.743 54.262a.5.5 0 0 1 -.5-.5v-2.588l.087-6.169a.468.468 0 0 1 .506-.493.5.5 0 0 1 .494.507l-.087 8.743a.5.5 0 0 1 -.5.5z"/><path d="m55.422 59.215h-.056a.5.5 0 0 1 -.441-.552l.321-2.87a.5.5 0 0 1 .994.111l-.321 2.87a.5.5 0 0 1 -.497.441z"/><path d="m18.038 15.137a.385.385 0 0 1 -.048 0 .5.5 0 0 1 -.45-.545l.209-2.188a.491.491 0 0 1 .544-.45.5.5 0 0 1 .451.545l-.209 2.188a.5.5 0 0 1 -.497.45z"/><path d="m18.677 10.762a.49.49 0 0 1 -.159-.026.5.5 0 0 1 -.318-.636 13.567 13.567 0 0 1 4.646-6.486.5.5 0 1 1 .614.789 12.6 12.6 0 0 0 -4.312 6.014.5.5 0 0 1 -.471.345z"/></g><path d="m37.863 69.277q-.409 0-.834 0a.583.583 0 0 1 -.574-.592.567.567 0 0 1 .591-.575 41.25 41.25 0 0 0 4.89-.187.583.583 0 1 1 .127 1.16 39.185 39.185 0 0 1 -4.2.194z" fill="#fff"/><path d="m34.889 69.276c-.618 0-1.2-.015-1.743-.036a.583.583 0 0 1 -.56-.606.59.59 0 0 1 .606-.56c.53.021 1.1.032 1.7.035a.584.584 0 0 1 0 1.167z" fill="#fff"/></svg>